<?xml version="1.0" encoding="UTF-8"?>
<svg width="1200pt" height="1200pt" version="1.1" viewBox="0 0 1200 1200" xmlns="http://www.w3.org/2000/svg">
 <path d="m573.33 533.33c0 22.094-17.906 40-40 40-22.09 0-40-17.906-40-40 0-22.09 17.91-40 40-40 22.094 0 40 17.91 40 40"/>
 <path d="m760 533.33c0 22.094-17.91 40-40 40s-40-17.906-40-40c0-22.09 17.91-40 40-40s40 17.91 40 40"/>
 <path d="m730.67 678.67c6.668-13.332 1.332-29.332-12-36s-29.332-1.332-36 12c-5.3359 10.664-17.336 25.332-56 25.332-38.668 0-50.668-14.668-56-25.332-6.668-13.332-22.668-18.668-36-12s-18.668 22.668-12 36c12 25.332 40 54.668 104 54.668 64-0.003907 92-29.336 104-54.668z"/>
 <path d="m173.33 946.67h453.33c230.67 0 426.67-165.33 426.67-360s-196-360-426.66-360c-230.67 0-426.67 165.33-426.67 360 0 62.668 16 113.33 38.668 156l-88 164c-4 8-4 18.668 0 26.668 4 7.9961 13.332 13.332 22.664 13.332zm97.336-150.67c5.332 6.668 9.332 13.332 14.668 20 9.332 13.332 25.332 13.332 37.332 5.332 12-9.332 14.668-25.332 5.332-37.332-37.332-49.332-74.668-110.67-74.668-197.33 0-166.67 170.67-306.67 373.33-306.67 202.67 0 373.33 140 373.33 306.67 0.003906 166.66-170.66 306.66-373.33 306.66h-409.34z"/>
</svg>
